<svg width="71" height="71" viewBox="0 0 71 71" fill="none" xmlns="http://www.w3.org/2000/svg">
<g clip-path="url(#clip0)">
<path d="M69.2841 56.5042C67.8796 58.1905 65.7987 59.1659 63.6041 59.1667H7.39581C5.20119 59.1659 3.12029 58.1905 1.71582 56.5042L28.8437 33.9026L31.6542 35.8255C33.9693 37.423 37.0308 37.423 39.3459 35.8255L42.1563 33.9026L69.2841 56.5042Z" fill="#1E88E5"/>
<path d="M69.6982 15.058L42.1562 33.9025L39.3458 35.8255C37.0306 37.423 33.9692 37.423 31.6541 35.8255L28.8436 33.9025L1.30176 15.0283C2.68764 13.03 4.96394 11.8365 7.39596 11.8334H63.6041C66.0471 11.8205 68.3346 13.0308 69.6982 15.058Z" fill="#64B5F6"/>
<path d="M28.8438 33.9026L1.71592 56.5043C0.605572 55.1772 -0.00194861 53.5013 0.000131462 51.771V19.2293C-0.00888219 17.7285 0.445822 16.2614 1.30184 15.0286L28.8438 33.9026Z" fill="#2196F3"/>
<path d="M71 19.2293V51.771C71.0019 53.5013 70.3945 55.1772 69.2842 56.5043L42.1562 33.9026L69.6982 15.0581C70.55 16.282 71.0044 17.7382 71 19.2293Z" fill="#2196F3"/>
</g>
<defs>
<clipPath id="clip0">
<rect width="71" height="71" fill="white"/>
</clipPath>
</defs>
</svg>
