<svg width="19" height="29" viewBox="0 0 19 29" fill="none" xmlns="http://www.w3.org/2000/svg">
<g clip-path="url(#clip0)">
<path d="M4.751 29C7.37248 29 9.50006 26.8346 9.50006 24.1666V19.3333H4.751C2.12953 19.3333 0.00195312 21.4986 0.00195312 24.1666C0.00195312 26.8346 2.12953 29 4.751 29Z" fill="#0ACF83"/>
<path d="M0.00195312 14.4998C0.00195312 11.8318 2.12953 9.6665 4.751 9.6665H9.50006V19.3332H4.751C2.12953 19.3332 0.00195312 17.1678 0.00195312 14.4998Z" fill="#A259FF"/>
<path d="M0.00195312 4.83333C0.00195312 2.16533 2.12953 0 4.751 0H9.50005V9.66667H4.751C2.12953 9.66667 0.00195312 7.50133 0.00195312 4.83333Z" fill="#F24E1E"/>
<path d="M9.5 0H14.2491C16.8705 0 18.9981 2.16533 18.9981 4.83333C18.9981 7.50133 16.8705 9.66667 14.2491 9.66667H9.5V0Z" fill="#FF7262"/>
<path d="M18.9981 14.4998C18.9981 17.1678 16.8705 19.3332 14.2491 19.3332C11.6276 19.3332 9.5 17.1678 9.5 14.4998C9.5 11.8318 11.6276 9.6665 14.2491 9.6665C16.8705 9.6665 18.9981 11.8318 18.9981 14.4998Z" fill="#1ABCFE"/>
</g>
<defs>
<clipPath id="clip0">
<rect width="19" height="29" fill="white"/>
</clipPath>
</defs>
</svg>
