<svg width="29" height="29" viewBox="0 0 29 29" fill="none" xmlns="http://www.w3.org/2000/svg">
<path d="M28.4531 13.2081L15.7914 0.546904C15.0627 -0.182301 13.88 -0.182301 13.1504 0.546904L10.5211 3.17621L13.8565 6.51161C14.6315 6.2497 15.5204 6.4254 16.1382 7.04325C16.759 7.66506 16.9334 8.56147 16.6652 9.33905L19.8795 12.5536C20.6572 12.2857 21.5545 12.459 22.1756 13.0811C23.0437 13.9489 23.0437 15.3553 22.1756 16.2236C21.3073 17.0921 19.9009 17.0921 19.0322 16.2236C18.3792 15.57 18.2179 14.611 18.5485 13.8066L15.5508 10.8089L15.5505 18.6976C15.7678 18.8051 15.9663 18.947 16.1382 19.1179C17.0063 19.9856 17.0063 21.3922 16.1382 22.2612C15.2699 23.1291 13.8628 23.1291 12.9958 22.2612C12.1277 21.3922 12.1277 19.9858 12.9958 19.118C13.2038 18.9099 13.451 18.745 13.7231 18.633V10.6708C13.4506 10.5596 13.2033 10.3946 12.9958 10.1858C12.3381 9.52903 12.1799 8.56397 12.5169 7.75637L9.22904 4.46809L0.547149 13.1496C-0.182383 13.8794 -0.182383 15.0622 0.547149 15.7916L13.2091 28.453C13.938 29.1823 15.1205 29.1823 15.8503 28.453L28.453 15.8504C29.1823 15.1208 29.1823 13.9373 28.453 13.2081" fill="#DE4C36"/>
</svg>
