<svg width="26" height="26" viewBox="0 0 26 26" fill="none" xmlns="http://www.w3.org/2000/svg">
<g clip-path="url(#clip0)">
<path d="M12.9996 0.270508C5.82106 0.270508 0 6.11338 0 13.3229C0 19.0886 3.72429 23.9808 8.892 25.7065C9.54158 25.8268 9.77852 25.4238 9.77852 25.0774C9.77852 24.768 9.76719 23.9473 9.7609 22.8578C6.14397 23.6474 5.38116 21.1083 5.38116 21.1083C4.79071 19.6003 3.93858 19.1998 3.93858 19.1998C2.75768 18.3896 4.02748 18.4051 4.02748 18.4051C5.33168 18.4969 6.01816 19.7508 6.01816 19.7508C7.17894 21.7453 9.06184 21.1686 9.80242 20.8344C9.91942 19.9915 10.2562 19.4157 10.6273 19.0899C7.74129 18.7599 4.70684 17.641 4.70684 12.6402C4.70684 11.2157 5.213 10.0503 6.04458 9.13693C5.90997 8.8069 5.46419 7.48048 6.17123 5.68396C6.17123 5.68396 7.26323 5.33338 9.74623 7.0217C10.7833 6.73235 11.8954 6.58767 13.0013 6.5818C14.1046 6.58767 15.2175 6.73193 16.2563 7.0217C18.7372 5.33338 19.8275 5.68396 19.8275 5.68396C20.5362 7.48048 20.0905 8.8069 19.9563 9.13693C20.7899 10.0503 21.2932 11.2153 21.2932 12.6402C21.2932 17.6536 18.2537 18.7565 15.3576 19.0802C15.8244 19.4832 16.2399 20.2792 16.2399 21.4974C16.2399 23.2428 16.2244 24.6493 16.2244 25.0774C16.2244 25.4272 16.4588 25.8335 17.1181 25.7048C22.2791 23.9758 26 19.087 26 13.3229C26 6.11338 20.1789 0.270508 12.9996 0.270508Z" fill="#3E77BF"/>
<path d="M12.9996 0.270508C5.82106 0.270508 0 6.11338 0 13.3229C0 19.0886 3.72429 23.9808 8.892 25.7065C9.54158 25.8268 9.77852 25.4238 9.77852 25.0774C9.77852 24.768 9.76719 23.9473 9.7609 22.8578C6.14397 23.6474 5.38116 21.1083 5.38116 21.1083C4.79071 19.6003 3.93858 19.1998 3.93858 19.1998C2.75768 18.3896 4.02748 18.4051 4.02748 18.4051C5.33168 18.4969 6.01816 19.7508 6.01816 19.7508C7.17894 21.7453 9.06184 21.1686 9.80242 20.8344C9.91942 19.9915 10.2562 19.4157 10.6273 19.0899C7.74129 18.7599 4.70684 17.641 4.70684 12.6402C4.70684 11.2157 5.213 10.0503 6.04458 9.13693C5.90997 8.8069 5.46419 7.48048 6.17123 5.68396C6.17123 5.68396 7.26323 5.33338 9.74623 7.0217C10.7833 6.73235 11.8954 6.58767 13.0013 6.5818C14.1046 6.58767 15.2175 6.73193 16.2563 7.0217C18.7372 5.33338 19.8275 5.68396 19.8275 5.68396C20.5362 7.48048 20.0905 8.8069 19.9563 9.13693C20.7899 10.0503 21.2932 11.2153 21.2932 12.6402C21.2932 17.6536 18.2537 18.7565 15.3576 19.0802C15.8244 19.4832 16.2399 20.2792 16.2399 21.4974C16.2399 23.2428 16.2244 24.6493 16.2244 25.0774C16.2244 25.4272 16.4588 25.8335 17.1181 25.7048C22.2791 23.9758 26 19.087 26 13.3229C26 6.11338 20.1789 0.270508 12.9996 0.270508Z" fill="#3E77BF"/>
<path d="M19.8405 5.72046C20.5286 7.49768 20.0896 8.80943 19.9558 9.13694C20.7895 10.0503 21.2927 11.2153 21.2927 12.6402C21.2927 17.6536 18.2532 18.7565 15.3572 19.0803C15.8239 19.4833 16.2395 20.2792 16.2395 21.4974C16.2395 23.2428 16.224 24.6493 16.224 25.0775C16.224 25.4272 16.4584 25.8336 17.1176 25.7048C22.279 23.9758 26 19.087 26 13.3229C26 11.7734 25.7299 10.2881 25.2363 8.90923C23.444 7.02214 21.4491 5.76533 19.8405 5.72046Z" fill="#114C82"/>
<path d="M10.1156 19.7789C10.2616 19.4845 10.4398 19.2555 10.6272 19.0899C9.04544 18.9087 7.42086 18.4864 6.27393 17.321C7.15625 18.7896 8.59296 19.4577 10.1156 19.7789Z" fill="#114C82"/>
<path d="M0.676839 14.2027C0.676839 6.99319 6.4979 1.15031 13.6764 1.15031C17.6624 1.15031 21.2277 2.95312 23.6118 5.7888C21.2571 2.45073 17.3831 0.270508 12.9996 0.270508C5.82106 0.270508 0 6.11338 0 13.3229C0 16.5373 1.15952 19.4782 3.07974 21.7515C1.56965 19.62 0.676839 17.0174 0.676839 14.2027Z" fill="#6CA9EA"/>
<path d="M16.9163 22.3778C16.9163 21.16 16.5008 20.3628 16.034 19.9598C18.9301 19.6369 21.97 18.5332 21.97 13.5202C21.97 12.0953 21.4668 10.9307 20.6322 10.0173C20.7673 9.68731 21.2139 8.36048 20.5035 6.56438C20.5035 6.56438 20.3685 6.52286 20.0896 6.5388C20.394 7.89331 20.0678 8.86202 19.9558 9.13712C20.7895 10.0505 21.2927 11.2154 21.2927 12.6404C21.2927 17.6538 18.2532 18.7567 15.3572 19.0804C15.8239 19.4834 16.2395 20.2794 16.2395 21.4976C16.2395 23.243 16.224 24.6495 16.224 25.0776C16.224 25.3854 16.4072 25.7364 16.9012 25.7281C16.9046 25.138 16.9163 23.8854 16.9163 22.3778Z" fill="#083E66"/>
<path d="M6.15723 22.2253C6.43023 22.7873 7.34777 24.1334 9.76828 23.8499C9.76493 23.5538 9.76241 23.2221 9.76074 22.8577C7.89335 23.2653 6.79087 22.7848 6.15723 22.2253Z" fill="#114C82"/>
<path d="M6.62397 20.5163C6.54052 20.3905 6.3841 20.1771 6.15723 19.9636C6.30442 20.1821 6.46084 20.3654 6.62397 20.5163Z" fill="#6CA9EA"/>
</g>
<defs>
<clipPath id="clip0">
<rect width="26" height="26" fill="white"/>
</clipPath>
</defs>
</svg>
