<svg width="70" height="70" viewBox="0 0 70 70" fill="none" xmlns="http://www.w3.org/2000/svg">
<g id="github">
<rect id="rect4" width="70" height="70" fill="#E6E2E2"/>
<path id="github_2" d="M35 23C28.374 23 23 28.373 23 35C23 40.302 26.438 44.8 31.207 46.387C31.806 46.498 32 46.126 32 45.81V43.576C28.662 44.302 27.967 42.16 27.967 42.16C27.421 40.773 26.634 40.404 26.634 40.404C25.545 39.659 26.717 39.675 26.717 39.675C27.922 39.759 28.556 40.912 28.556 40.912C29.626 42.746 31.363 42.216 32.048 41.909C32.155 41.134 32.466 40.604 32.81 40.305C30.145 40 27.343 38.971 27.343 34.374C27.343 33.063 27.812 31.993 28.579 31.153C28.455 30.85 28.044 29.629 28.696 27.977C28.696 27.977 29.704 27.655 31.997 29.207C32.954 28.941 33.98 28.808 35 28.803C36.02 28.808 37.047 28.941 38.006 29.207C40.297 27.655 41.303 27.977 41.303 27.977C41.956 29.63 41.545 30.851 41.421 31.153C42.191 31.993 42.656 33.064 42.656 34.374C42.656 38.983 39.849 39.998 37.177 40.295C37.607 40.667 38 41.397 38 42.517V45.81C38 46.129 38.192 46.504 38.801 46.386C43.566 44.797 47 40.3 47 35C47 28.373 41.627 23 35 23Z" fill="#464866"/>
</g>
</svg>
