<svg width="24" height="27" viewBox="0 0 24 27" fill="none" xmlns="http://www.w3.org/2000/svg">
<path d="M2.121 23.7898L0 0H23.3065L21.1832 23.7861L11.6389 26.4321L2.121 23.7898Z" fill="#E44D26"/>
<path d="M11.6533 24.4097L19.3654 22.2715L21.1801 1.94531H11.6533V24.4097Z" fill="#F16529"/>
<path d="M11.6532 10.7686H7.79242L7.52572 7.7808H11.6532V4.86304H4.33691L4.40683 5.64582L5.12393 13.6862H11.6532V10.7686ZM11.6532 18.3462L11.6404 18.3497L8.39097 17.4722L8.18323 15.1452H5.25434L5.66316 19.7265L11.6399 21.3856L11.6532 21.3819V18.3462Z" fill="#EBEBEB"/>
<path d="M11.6431 10.7686V13.6862H15.236L14.8972 17.4704L11.6431 18.3486V21.3841L17.6246 19.7265L17.6683 19.2334L18.3541 11.5521L18.4253 10.7686H17.6391H11.6431ZM11.6431 4.86304V7.7808H18.6908L18.7492 7.12493L18.8822 5.64582L18.952 4.86304H11.6431Z" fill="white"/>
</svg>
