<svg width="45" height="45" viewBox="0 0 45 45" fill="none" xmlns="http://www.w3.org/2000/svg">
<path d="M41.4844 33.0469H3.51562V14.7656C3.51562 13.2123 4.77483 11.9531 6.32812 11.9531H38.6719C40.2252 11.9531 41.4844 13.2123 41.4844 14.7656V33.0469Z" fill="#463C4B"/>
<path d="M38.6719 33.0469H3.51562V14.7656C3.51562 13.2123 4.77483 11.9531 6.32812 11.9531H35.8594C37.4127 11.9531 38.6719 13.2123 38.6719 14.7656V33.0469Z" fill="#555A6E"/>
<path d="M6.32812 36.5625H38.6719C40.2252 36.5625 41.4844 35.3033 41.4844 33.75V33.0469H3.51562V33.75C3.51562 35.3033 4.77483 36.5625 6.32812 36.5625Z" fill="#A5C3DC"/>
<path d="M35.8594 36.5625H6.32812C4.77483 36.5625 3.51562 35.3033 3.51562 33.75V33.0469H38.6719V33.75C38.6719 35.3033 37.4127 36.5625 35.8594 36.5625Z" fill="#D7E6F0"/>
<path d="M18.2812 36.5625H24.6094V39.375H18.2812V36.5625Z" fill="#A5C3DC"/>
<path d="M18.2812 37.9688H22.5V39.375H18.2812V37.9688Z" fill="#D7E6F0"/>
<path d="M28.125 41.4844H14.0625V40.7812C14.0625 40.0046 14.6921 39.375 15.4688 39.375H26.7188C27.4954 39.375 28.125 40.0046 28.125 40.7812V41.4844Z" fill="#D7E6F0"/>
<path d="M28.125 41.4844H23.9062V40.7812C23.9062 40.0046 24.5358 39.375 25.3125 39.375H26.7188C27.4954 39.375 28.125 40.0046 28.125 40.7812V41.4844Z" fill="#A5C3DC"/>
<path d="M33.0469 28.8281H9.14062C8.36394 28.8281 7.73438 28.1986 7.73438 27.4219V4.92188C7.73438 4.14519 8.36394 3.51562 9.14062 3.51562H33.0469C33.8236 3.51562 34.4531 4.14519 34.4531 4.92188V27.4219C34.4531 28.1986 33.8236 28.8281 33.0469 28.8281Z" fill="#D7E6F0"/>
<path d="M34.4531 6.32812H7.73438V4.92188C7.73438 4.14519 8.36394 3.51562 9.14062 3.51562H33.0469C33.8236 3.51562 34.4531 4.14519 34.4531 4.92188V6.32812Z" fill="#555A6E"/>
<path d="M10.5469 5.625C10.9352 5.625 11.25 5.3102 11.25 4.92188C11.25 4.53355 10.9352 4.21875 10.5469 4.21875C10.1585 4.21875 9.84375 4.53355 9.84375 4.92188C9.84375 5.3102 10.1585 5.625 10.5469 5.625Z" fill="#289BC3"/>
<path d="M13.3594 5.625C13.7477 5.625 14.0625 5.3102 14.0625 4.92188C14.0625 4.53355 13.7477 4.21875 13.3594 4.21875C12.971 4.21875 12.6562 4.53355 12.6562 4.92188C12.6562 5.3102 12.971 5.625 13.3594 5.625Z" fill="#FF6E91"/>
<path d="M16.1719 5.625C16.5602 5.625 16.875 5.3102 16.875 4.92188C16.875 4.53355 16.5602 4.21875 16.1719 4.21875C15.7835 4.21875 15.4688 4.53355 15.4688 4.92188C15.4688 5.3102 15.7835 5.625 16.1719 5.625Z" fill="#D7E6F0"/>
<path d="M30.9375 17.5781H11.0156C10.6273 17.5781 10.3125 17.2633 10.3125 16.875V9.84375C10.3125 9.45545 10.6273 9.14062 11.0156 9.14062H30.9375C31.3258 9.14062 31.6407 9.45545 31.6407 9.84375V16.875C31.6407 17.2633 31.3258 17.5781 30.9375 17.5781Z" fill="#289BC3"/>
<path d="M19.6875 26.0156H11.0156C10.6273 26.0156 10.3125 25.7008 10.3125 25.3125V19.6875C10.3125 19.2992 10.6273 18.9844 11.0156 18.9844H19.6875C20.0758 18.9844 20.3907 19.2992 20.3907 19.6875V25.3125C20.3907 25.7008 20.0758 26.0156 19.6875 26.0156Z" fill="#00D2D2"/>
<path d="M30.9375 20.3906H22.2656C21.8773 20.3906 21.5625 20.0758 21.5625 19.6875C21.5625 19.2992 21.8773 18.9844 22.2656 18.9844H30.9375C31.3258 18.9844 31.6407 19.2992 31.6407 19.6875C31.6407 20.0758 31.3258 20.3906 30.9375 20.3906Z" fill="#A5C3DC"/>
<path d="M30.9375 23.2031H22.2656C21.8773 23.2031 21.5625 22.8883 21.5625 22.5C21.5625 22.1117 21.8773 21.7969 22.2656 21.7969H30.9375C31.3258 21.7969 31.6407 22.1117 31.6407 22.5C31.6407 22.8883 31.3258 23.2031 30.9375 23.2031Z" fill="#A5C3DC"/>
<path d="M30.9375 26.0156H22.2656C21.8773 26.0156 21.5625 25.7008 21.5625 25.3125C21.5625 24.9242 21.8773 24.6094 22.2656 24.6094H30.9375C31.3258 24.6094 31.6407 24.9242 31.6407 25.3125C31.6407 25.7008 31.3258 26.0156 30.9375 26.0156Z" fill="#A5C3DC"/>
<path d="M40.952 31.1083L37.9688 28.125L38.9337 27.16C39.875 26.2187 39.2084 24.6094 37.8772 24.6094H30.5641C30.1079 24.6094 29.6553 24.7239 29.2676 24.9642C28.5456 25.4117 28.125 26.1904 28.125 27.0122V31.549C28.125 32.4497 28.8619 33.0453 29.63 33.0453L29.6299 33.0462H32.4424L32.4425 33.0453C32.6138 33.0453 32.7864 33.0154 32.9529 32.9528L34.6591 34.659C34.9774 34.9774 35.4092 35.1562 35.8594 35.1562H38.6719C39.1221 35.1562 39.5539 34.9774 39.8722 34.6591L40.9872 33.5441C41.3926 33.1386 41.5718 32.5492 41.4433 31.972C41.3701 31.6427 41.1905 31.3467 40.952 31.1083Z" fill="#289BC3"/>
<path d="M38.1747 31.1434L35.1562 28.125L36.1212 27.16C37.0625 26.2187 36.3959 24.6094 35.0647 24.6094H30.5234C29.8873 24.6094 29.2774 24.8623 28.8281 25.3125C28.3779 25.7636 28.125 26.3749 28.125 27.0122V31.549C28.125 32.8801 29.7344 33.5468 30.6757 32.6056L31.6406 31.6406L34.6591 34.6591C34.9774 34.9774 35.4092 35.1562 35.8594 35.1562C36.3096 35.1562 36.7414 34.9774 37.0597 34.6591L38.1748 33.544C38.493 33.2256 38.6719 32.7939 38.6719 32.3438C38.6719 31.8936 38.493 31.4618 38.1747 31.1434V31.1434Z" fill="#00D2D2"/>
</svg>
