<svg width="45" height="45" viewBox="0 0 45 45" fill="none" xmlns="http://www.w3.org/2000/svg">
<path d="M45 12.6307V36.8963C45 38.8964 43.3784 40.5181 41.3783 40.5181H3.62173C1.62163 40.5181 0 38.8964 0 36.8963V12.6307H45Z" fill="#F5F5F5"/>
<path d="M45 14.4415V12.6307L22.5 11.7252L0 12.6307V14.4415V36.8962C0 38.8963 1.62163 40.518 3.62173 40.518H5.4326C3.43249 40.518 1.81087 38.8963 1.81087 36.8962V14.4415H45Z" fill="#E6E6E6"/>
<path d="M45 8.10354V12.6307H0V8.10354C0 6.10344 1.62163 4.48181 3.62173 4.48181H41.3783C43.3784 4.48181 45 6.10344 45 8.10354Z" fill="#50758D"/>
<path d="M42.9629 8.55626C42.9629 7.43299 42.0491 6.51904 40.9257 6.51904H21.64C21.0619 6.51904 20.5397 6.76143 20.1686 7.14949C19.7369 7.58021 19.9396 7.37757 19.5089 7.80919C19.1208 8.18033 18.8784 8.70249 18.8784 9.28061C18.8784 10.4039 19.7923 11.3178 20.9156 11.3178H40.2014C40.7795 11.3178 41.3016 11.0754 41.6728 10.6874C42.1044 10.2567 41.9018 10.4593 42.3325 10.0277C42.7205 9.65655 42.9629 9.13438 42.9629 8.55626Z" fill="#2B597F"/>
<path d="M6.17965 8.53368C6.17965 7.4104 5.2658 6.49646 4.14243 6.49646C3.56431 6.49646 3.04215 6.73884 2.67101 7.12691C2.23939 7.55763 2.44203 7.35499 2.01131 7.78661C1.62324 8.15775 1.38086 8.67991 1.38086 9.25803C1.38086 10.3813 2.29471 11.2953 3.41808 11.2953C3.9962 11.2953 4.51836 11.0529 4.8895 10.6648C5.32112 10.2341 5.11848 10.4367 5.5492 10.0051C5.93727 9.63396 6.17965 9.1118 6.17965 8.53368Z" fill="#2B597F"/>
<path d="M11.997 8.53368C11.997 7.4104 11.0832 6.49646 9.95981 6.49646C9.38169 6.49646 8.85953 6.73884 8.48839 7.12691C8.05677 7.55763 8.25941 7.35499 7.82869 7.78661C7.44063 8.15775 7.19824 8.67991 7.19824 9.25803C7.19824 10.3813 8.1121 11.2953 9.23547 11.2953C9.81358 11.2953 10.3357 11.0529 10.7069 10.6648C11.1385 10.2341 10.9359 10.4367 11.3666 10.0051C11.7547 9.63396 11.997 9.1118 11.997 8.53368Z" fill="#2B597F"/>
<path d="M17.7917 8.53368C17.7917 7.4104 16.8779 6.49646 15.7545 6.49646C15.1764 6.49646 14.6542 6.73884 14.2831 7.12691C13.8515 7.55763 14.0541 7.35499 13.6234 7.78661C13.2353 8.15775 12.9929 8.67991 12.9929 9.25803C12.9929 10.3813 13.9068 11.2953 15.0301 11.2953C15.6083 11.2953 16.1304 11.0529 16.5016 10.6648C16.9332 10.2341 16.7305 10.4367 17.1613 10.0051C17.5493 9.63396 17.7917 9.1118 17.7917 8.53368Z" fill="#2B597F"/>
<path d="M4.14245 10.5709C3.01908 10.5709 2.10522 9.65696 2.10522 8.53368C2.10522 7.4104 3.01908 6.49646 4.14245 6.49646C5.26582 6.49646 6.17967 7.4104 6.17967 8.53368C6.17967 9.65696 5.26582 10.5709 4.14245 10.5709Z" fill="#FD646F"/>
<path d="M9.95983 10.5935C8.83646 10.5935 7.92261 9.67955 7.92261 8.55627C7.92261 7.43299 8.83646 6.51904 9.95983 6.51904C11.0832 6.51904 11.9971 7.43299 11.9971 8.55627C11.9971 9.67955 11.0832 10.5935 9.95983 10.5935Z" fill="#FFC682"/>
<path d="M15.7545 10.5935C14.6311 10.5935 13.7173 9.67955 13.7173 8.55627C13.7173 7.43299 14.6311 6.51904 15.7545 6.51904C16.8779 6.51904 17.7917 7.43299 17.7917 8.55627C17.7917 9.67955 16.8779 10.5935 15.7545 10.5935Z" fill="#93DDB7"/>
<path d="M40.9257 10.5935H21.64C20.5166 10.5935 19.6028 9.67955 19.6028 8.55627C19.6028 7.43299 20.5166 6.51904 21.64 6.51904H40.9257C42.0491 6.51904 42.9629 7.43299 42.9629 8.55627C42.9629 9.67955 42.0491 10.5935 40.9257 10.5935Z" fill="#F5F5F5"/>
<path d="M19.6205 34.5787C19.4305 34.5787 19.2374 34.5404 19.0521 34.4595C18.3324 34.1451 18.0039 33.307 18.3182 32.5872L24.0758 19.4056C24.3901 18.686 25.2282 18.3576 25.948 18.6717C26.6677 18.9861 26.9963 19.8243 26.6819 20.544L20.9243 33.7256C20.6909 34.26 20.1687 34.5787 19.6205 34.5787V34.5787Z" fill="#50758D"/>
<path d="M13.9331 34.0663C13.5692 34.0663 13.2052 33.9275 12.9276 33.6499L7.59536 28.3177C7.04015 27.7624 7.04015 26.862 7.59536 26.3067L12.8566 21.0455C13.4119 20.4902 14.3122 20.4902 14.8675 21.0455C15.4227 21.6008 15.4227 22.5012 14.8675 23.0565L10.6118 27.3122L14.9387 31.639C15.4939 32.1943 15.4939 33.0946 14.9387 33.6499C14.661 33.9275 14.297 34.0663 13.9331 34.0663V34.0663Z" fill="#50758D"/>
<path d="M31.067 34.0663C31.4309 34.0663 31.7949 33.9275 32.0725 33.6499L37.4048 28.3177C37.96 27.7624 37.96 26.862 37.4048 26.3067L32.1436 21.0455C31.5883 20.4902 30.6879 20.4902 30.1326 21.0455C29.5774 21.6008 29.5774 22.5012 30.1326 23.0565L34.3883 27.3122L30.0614 31.639C29.5062 32.1943 29.5062 33.0946 30.0614 33.6499C30.3391 33.9275 30.7031 34.0663 31.067 34.0663V34.0663Z" fill="#50758D"/>
</svg>
