<svg width="24" height="27" viewBox="0 0 24 27" fill="none" xmlns="http://www.w3.org/2000/svg">
<path d="M23.3723 0H0L2.19115 23.7605L11.6848 26.4531L21.1785 23.7605L23.3723 0Z" fill="#E6A329"/>
<path d="M11.6848 1.93579V24.4395L19.3769 22.2602L21.2482 1.93579H11.6848Z" fill="#F1BF22"/>
<path d="M17.8043 4.85083H5.97739L5.15356 13.747L5.17067 13.6918H15.2184L14.8907 17.4555L11.6849 18.3781L8.43174 17.4411L8.23697 15.1631H5.28385L5.70497 19.7151L11.6849 21.4128L17.6675 19.7151L18.4913 10.7808H7.82769L7.96456 7.80395H15.3631L15.4737 9.5095H18.4531L17.8043 4.85083Z" fill="white"/>
<path d="M11.6875 4.85083H5.97739L5.15356 13.747L5.17067 13.6918H11.6875V10.79H8.24355L8.38041 7.81316H11.6875V4.85083ZM8.24355 15.1631H5.28385L5.70497 19.7125L11.6849 21.4075V18.3807L8.43174 17.4411L8.24355 15.1631Z" fill="#EBEBEB"/>
</svg>
