<svg width="507" height="656" viewBox="0 0 507 656" fill="none" xmlns="http://www.w3.org/2000/svg">
<path d="M354.725 593.313C354.725 565.894 331.546 543.665 302.954 543.665C274.362 543.665 251.184 565.894 251.184 593.313V649.415" stroke="#AAABB8" stroke-width="13" stroke-linecap="round" stroke-linejoin="round"/>
<path d="M332.291 292.51C313.229 292.51 297.777 307.306 297.777 325.557C297.777 343.808 313.229 358.604 332.291 358.604C351.352 358.604 366.804 343.808 366.804 325.557C366.804 307.306 351.352 292.51 332.291 292.51Z" stroke="#AAABB8" stroke-width="13" stroke-linecap="round" stroke-linejoin="round"/>
<path d="M513.153 583.202C513.153 548.297 483.794 520 447.577 520C411.361 520 382.002 548.297 382.002 583.202C382.002 618.107 411.361 646.404 447.577 646.404H513.153" stroke="#464866" stroke-width="13" stroke-linecap="round" stroke-linejoin="round"/>
<path d="M245.399 324.731C245.399 371.727 284.553 409.826 332.85 409.826C381.147 409.826 420.301 371.727 420.301 324.731C420.301 277.734 381.147 239.635 332.85 239.635L103.638 239.635" stroke="#29648A" stroke-width="13" stroke-linecap="round" stroke-linejoin="round"/>
<path fill-rule="evenodd" clip-rule="evenodd" d="M530.34 74.9999C558.694 74.9999 581.679 96.9714 581.679 124.074V263.862C581.679 290.965 558.694 312.937 530.34 312.937C501.987 312.937 479.001 290.965 479.001 263.862V124.074C479.001 96.9714 501.987 74.9999 530.34 74.9999Z" stroke="#29648A" stroke-width="13" stroke-linecap="round" stroke-linejoin="round"/>
<path d="M158.86 16.5701L158.86 90.3751C158.86 111.44 140.897 128.516 118.738 128.516C96.5789 128.516 78.6157 111.44 78.6157 90.3751L78.6157 -57.2349C78.6157 -78.2995 96.5789 -95.3757 118.738 -95.3757C140.897 -95.3757 158.86 -78.2995 158.86 -57.2349V-39.4028" stroke="#464866" stroke-width="13" stroke-linecap="round" stroke-linejoin="round"/>
<path d="M159.244 484.946L159.244 558.751C159.244 579.815 141.281 596.892 119.122 596.892C96.9632 596.892 79 579.815 79 558.751L79 411.141C79 390.076 96.9632 373 119.122 373C141.281 373 159.244 390.076 159.244 411.141V428.973" stroke="#464866" stroke-width="13" stroke-linecap="round" stroke-linejoin="round"/>
<path d="M51.0049 387.577V381.142C51.0049 344.512 82.1026 314.817 120.463 314.817C158.824 314.817 189.922 344.512 189.922 381.142L189.922 583.089C189.922 619.72 158.824 649.415 120.463 649.415C82.1026 649.415 51.0049 619.72 51.0049 583.089V581.109" stroke="#29648A" stroke-width="13" stroke-linecap="round" stroke-linejoin="round"/>
<path d="M461.354 36.2676L465.504 36.2356C495.02 36.0079 518.77 12.8913 518.551 -15.3976C518.333 -43.6865 494.23 -66.434 464.714 -66.2063L341.227 -65.2538C311.711 -65.0262 287.962 -41.9096 288.18 -13.6207C288.398 14.6682 312.501 37.4157 342.017 37.1881L346.168 37.156" stroke="#29648A" stroke-width="13" stroke-linecap="round" stroke-linejoin="round"/>
<path d="M225.299 128.516L225.299 -62.855C225.299 -120.056 176.431 -166.426 116.149 -166.426C55.8677 -166.426 7 -120.056 7 -62.855V-17.6407" stroke="#AAABB8" stroke-width="13" stroke-linecap="round" stroke-linejoin="round"/>
<path d="M367.667 94.643H410.107C438.611 94.643 461.717 116.836 461.717 144.213C461.717 171.59 438.611 193.783 410.107 193.783L325.227 193.783C296.724 193.783 273.618 171.59 273.618 144.213V139.809C273.618 114.865 294.671 94.643 320.642 94.643" stroke="#4484AB" stroke-width="13" stroke-linecap="round" stroke-linejoin="round"/>
<path d="M257.224 482.529L373.432 482.529C446.97 482.529 506.584 425.196 506.584 354.473" stroke="#AAABB8" stroke-width="13" stroke-linecap="round" stroke-linejoin="round"/>
<path d="M195.099 170.237H110.219C53.2124 170.237 7 214.624 7 269.377" stroke="#4484AB" stroke-width="13" stroke-linecap="round" stroke-linejoin="round"/>
</svg>
