<svg width="23" height="28" viewBox="0 0 23 28" fill="none" xmlns="http://www.w3.org/2000/svg">
<path d="M19.7995 16.0784C18.9953 16.0858 18.299 16.3994 17.7149 16.8665C17.4993 16.1733 17.2837 15.5676 17.2478 15.1153C17.2073 14.59 17.1579 14.2689 17.2073 13.6414C17.2567 13.0139 17.4813 12.1237 17.4813 12.0508C17.4768 11.9851 17.4319 11.664 16.9692 11.6567C16.5065 11.6494 16.1066 11.8027 16.0617 11.9997C16.0168 12.1967 15.9269 12.6491 15.8685 13.116C15.7876 13.8019 14.943 16.2316 14.4623 17.5085C14.3051 17.0123 14.1703 16.5745 14.1433 16.2242C14.1029 15.699 14.0534 15.3779 14.1029 14.7504C14.1523 14.1229 14.377 13.2328 14.377 13.1598C14.3725 13.0941 14.3275 12.7731 13.8649 12.7658C13.4021 12.7585 13.0023 12.9117 12.9573 13.1087C12.9124 13.3057 12.863 13.7727 12.7642 14.2251C12.6698 14.6775 11.5466 18.7343 11.2546 19.7923C11.1064 20.3322 10.9761 20.7627 10.8817 21.0546C10.7874 21.3464 10.8772 21.0764 10.8683 21.1056C10.7874 21.3537 10.7425 21.4923 10.7425 21.4923V21.4997C10.6796 21.6821 10.6122 21.8572 10.5807 21.8572C10.5582 21.8572 10.5133 21.3683 10.5897 20.6971C10.7559 19.2888 11.1602 17.0927 11.1558 17.0124C11.1558 16.9759 11.2321 16.5891 10.8952 16.3922C10.5672 16.1952 10.4504 16.5235 10.4234 16.5235C10.3965 16.5235 10.374 16.6403 10.374 16.6403C10.374 16.6403 10.7379 14.1669 9.67768 14.1669C9.01277 14.1669 8.09629 15.3416 7.64254 16.4142C7.35501 16.6695 6.74402 17.2094 6.09709 17.7859C5.85 18.0048 5.59392 18.2383 5.35132 18.4499L5.30195 18.3622C4.01707 16.1368 1.6405 14.5607 1.73933 11.5692C1.77527 10.482 2.00889 7.61452 6.30384 4.14141C9.82153 1.2958 12.6384 2.07652 13.128 3.81307C13.8244 6.29386 11.623 10.9052 7.96609 11.5692C6.57339 11.8246 5.84106 10.949 5.65691 10.6207C5.46373 10.2777 5.43677 10.2631 5.36489 10.3288C5.24808 10.4309 5.31996 10.7374 5.36489 10.9198C5.47271 11.3795 5.92197 12.1967 6.68571 12.6053C7.35506 12.9628 8.9904 13.1598 10.9671 11.9194C13.182 10.5258 14.9116 6.65869 14.404 3.42636C13.8873 0.13567 10.5269 -0.944204 7.35061 0.887202C5.45919 1.98167 3.41057 3.68903 1.93701 5.92904C0.1849 8.58495 -0.0936404 10.9052 0.0231666 11.8683C0.432036 15.305 3.34768 17.545 4.51575 19.2013C4.45734 19.2523 4.40343 19.3033 4.35401 19.3472C3.76998 19.8141 1.54615 21.7039 0.989071 23.7031C0.36011 25.965 1.08791 27.5922 1.57311 27.8111C3.07363 28.4896 4.61009 27.2711 5.44122 25.2646C6.26781 23.2581 6.16902 20.6533 5.78715 19.4639L5.77362 19.4202L6.23187 18.9824C6.52842 18.6978 6.82044 18.4351 7.07647 18.2089C6.93275 18.8437 6.82938 19.5952 6.77551 20.6897C6.71262 21.9739 7.03608 23.6374 7.46288 24.2941C7.65157 24.5786 7.8762 24.586 8.01547 24.586C8.50965 24.586 8.73428 23.9219 8.98137 23.1267C9.28687 22.1562 9.55642 21.0326 9.55642 21.0326C9.55642 21.0326 9.21948 24.0752 10.1405 24.0752C10.4774 24.0752 10.8143 23.3675 10.9671 23.0026V23.0099C10.9671 23.0099 10.9761 22.988 10.994 22.937C11.0129 22.8917 11.0309 22.8455 11.048 22.7984V22.7838C11.1827 22.4044 11.4837 21.5361 11.933 20.0987C12.5125 18.2454 13.0696 15.9252 13.0696 15.9252C13.0696 15.9252 13.1235 16.4943 13.2898 17.4282C13.3885 17.9828 13.6042 18.5884 13.7704 19.1794C13.6356 19.4858 13.5548 19.661 13.5548 19.661L13.5593 19.6683C13.4515 19.9018 13.3301 20.1499 13.2044 20.398C12.7462 21.2881 12.1981 22.3024 12.1262 22.5943C12.0408 22.9371 12.0588 23.1925 12.225 23.3969C12.3463 23.5428 12.562 23.5719 12.7911 23.5428C13.2044 23.4989 13.4919 23.3312 13.6357 23.229C13.8603 23.0976 14.1164 22.9006 14.3635 22.6088C14.8127 22.0689 15.0868 21.3028 15.0598 20.2813C15.0464 19.7195 14.934 19.1649 14.7948 18.6396C14.8352 18.5447 14.8757 18.4498 14.9161 18.3477C15.6259 16.6622 16.174 14.809 16.174 14.809C16.174 14.809 16.2279 15.3781 16.3941 16.312C16.4794 16.7863 16.6502 17.3044 16.803 17.8152C16.1381 18.698 15.7202 19.7195 15.5765 20.3908C15.3114 21.6312 15.5181 22.193 15.9089 22.3244C16.0841 22.3827 16.3357 22.2514 16.5244 22.1201C16.758 21.996 17.041 21.7843 17.3016 21.4707C17.7509 20.9307 18.1822 20.1792 18.1597 19.165C18.1462 18.698 18.0699 18.2384 17.9665 17.8006C18.5326 17.4212 19.2648 17.2023 20.1948 17.3847C22.194 17.7641 22.5894 19.7925 22.5131 20.6389C22.4367 21.4853 22.0189 21.9522 21.8796 22.0982C21.7403 22.2368 21.6954 22.2879 21.7088 22.39C21.7268 22.5433 21.7897 22.536 21.911 22.5068C22.0772 22.463 22.9623 21.8137 22.9982 20.2523C23.0521 18.2455 21.8796 16.0566 19.7995 16.0784ZM4.38097 24.5204C3.72056 25.6951 2.7906 26.1402 2.39525 25.7608C1.96845 25.3595 2.13463 23.6302 2.94784 22.3825C3.44202 21.6237 4.08446 20.9232 4.50676 20.4927C4.60111 20.3979 4.74487 20.2593 4.91559 20.0914C4.94254 20.0623 4.96051 20.0477 4.96051 20.0477C4.99196 20.0185 5.0279 19.982 5.06384 19.9455C5.36484 21.7258 5.07732 23.2873 4.38097 24.5204ZM9.21049 19.1867C8.98137 20.0987 8.49617 22.4409 8.20415 22.3095C7.95252 22.2001 7.79982 20.4271 8.15469 18.6759C8.33439 17.793 8.71626 16.7424 8.94089 16.3337C9.30484 15.677 9.70014 15.4581 9.79902 15.7281C9.91583 16.0784 9.35425 18.6175 9.21049 19.1867ZM13.1954 22.2804C13.0966 22.3607 13.0067 22.419 12.9663 22.3753C12.9348 22.3461 13.0067 22.2367 13.0067 22.2367C13.0067 22.2367 13.5054 21.3684 13.703 20.9671C13.8153 20.7337 13.9501 20.4637 14.0939 20.1572V20.2447C14.0939 21.2953 13.474 21.9958 13.1954 22.2804ZM16.2683 21.1421C16.1964 21.0546 16.2054 20.7846 16.448 19.9382C16.5424 19.6026 16.758 19.0407 17.1309 18.5081C17.1758 18.727 17.2028 18.9385 17.1983 19.1356C17.1938 20.449 16.6188 20.9378 16.2683 21.1421Z" fill="#CF649A"/>
</svg>
