<svg width="20" height="18" viewBox="0 0 20 18" fill="none" xmlns="http://www.w3.org/2000/svg">
<path id="1" d="M0 4.79506V15.9848C0 16.8651 0.715513 17.5844 1.5996 17.5844H2.39753V3.1992H1.5996C0.715513 3.1992 0 3.91472 0 4.79506ZM17.5806 3.1992H16.7827V17.5844H17.5806C18.461 17.5844 19.1802 16.8689 19.1802 15.9848V4.79506C19.1802 3.91472 18.4647 3.1992 17.5806 3.1992ZM3.99713 17.5844H15.1869V3.1992H3.99713V17.5844V17.5844ZM7.99052 1.5996H11.186V2.39753H12.7856V1.5996C12.7856 0.719259 12.0701 0 11.186 0H7.99052C7.11017 0 6.39092 0.715513 6.39092 1.5996V2.39753H7.99052V1.5996Z" fill="#FEB03C"/>
</svg>
