<svg width="30" height="30" viewBox="0 0 30 30" fill="none" xmlns="http://www.w3.org/2000/svg">
<g id="10">
<circle id="Ellipse 10" cx="15.4092" cy="15.3962" r="14.5475" fill="#FEB03C"/>
<path id="Vector" fill-rule="evenodd" clip-rule="evenodd" d="M16.0463 21.497H9.82209C9.22782 21.497 8.74551 21.0147 8.74551 20.4204V9.6547C8.74551 9.06043 9.22782 8.57812 9.82209 8.57812H17.3581C17.9524 8.57812 18.4347 9.06043 18.4347 9.6547V11.8078H17.3581V10.193H9.82209V19.3438H15.7432V20.6896C15.7432 20.9716 15.8412 21.3221 16.0463 21.497ZM20.857 12.3461C21.3027 12.3461 21.6644 12.7079 21.6644 13.1536V20.6896C21.6644 21.1342 21.3032 21.497 20.857 21.497H17.0889C16.6427 21.497 16.2815 21.1336 16.2815 20.6896V13.1536C16.2815 12.7084 16.6438 12.3461 17.0889 12.3461H20.857ZM13.5901 19.8821C13.8872 19.8821 14.1284 20.1233 14.1284 20.4204C14.1284 20.7176 13.8872 20.9587 13.5901 20.9587C13.293 20.9587 13.0518 20.7176 13.0518 20.4204C13.0518 20.1233 13.293 19.8821 13.5901 19.8821ZM18.973 20.9587C18.6753 20.9587 18.4347 20.7176 18.4347 20.4204C18.4347 20.1233 18.6753 19.8821 18.973 19.8821C19.2701 19.8821 19.5107 20.1233 19.5107 20.4204C19.5107 20.7176 19.2701 20.9587 18.973 20.9587ZM21.1261 19.3438V13.9481H16.8198V19.3438H21.1261ZM19.2421 13.4227C19.3901 13.4227 19.5112 13.3021 19.5112 13.1536C19.5112 13.005 19.3901 12.8844 19.2421 12.8844H18.7038C18.5552 12.8844 18.4347 13.005 18.4347 13.1536C18.4347 13.3021 18.5552 13.4227 18.7038 13.4227H19.2421Z" fill="white"/>
</g>
</svg>
