<svg width="31" height="30" viewBox="0 0 31 30" fill="none" xmlns="http://www.w3.org/2000/svg">
<g id="11">
<circle id="Ellipse 10" cx="15.4707" cy="15.3962" r="14.5475" fill="#FEB03C"/>
<path id="Vector" fill-rule="evenodd" clip-rule="evenodd" d="M15.2747 21.0308C11.8782 17.6892 8.63859 14.8188 8.63859 12.3423C8.63859 10.0553 10.4895 9.2107 11.8245 9.2107C12.616 9.2107 14.3287 9.51295 15.2747 11.8995C16.2339 9.50571 17.9677 9.21674 18.7291 9.21674C20.2614 9.21674 21.9108 10.1947 21.9108 12.3423C21.9108 14.7971 18.8123 17.5457 15.2747 21.0308ZM18.7291 8.61345C17.4001 8.61345 16.0469 9.24207 15.2747 10.5669C14.4995 9.23604 13.1499 8.60742 11.8245 8.60742C9.90428 8.60742 8.03531 9.9268 8.03531 12.3423C8.03531 15.1542 11.3962 18.0307 15.2747 21.8796C19.1538 18.0307 22.5141 15.1542 22.5141 12.3423C22.5141 9.92258 20.6469 8.61345 18.7291 8.61345" fill="white"/>
</g>
</svg>
