<svg width="21" height="20" viewBox="0 0 21 20" fill="none" xmlns="http://www.w3.org/2000/svg">
<g id="2">
<path id="Vector" d="M1.60105 7.49044L19.3023 0.790939C19.3662 0.766515 19.4358 0.761104 19.5026 0.775359C19.5695 0.789614 19.6308 0.822926 19.6792 0.87127C19.7275 0.919614 19.7608 0.980922 19.7751 1.04779C19.7893 1.11465 19.7839 1.18422 19.7595 1.24807L13.06 18.9494C13.0333 19.0166 12.9867 19.074 12.9265 19.114C12.8662 19.154 12.7951 19.1745 12.7229 19.1729C12.6506 19.1712 12.5805 19.1475 12.5221 19.1048C12.4637 19.0622 12.4198 19.0027 12.3962 18.9343L9.41352 11.5843C9.37875 11.4801 9.32022 11.3855 9.24257 11.3079C9.16493 11.2302 9.07028 11.1717 8.96612 11.1369L1.6161 8.15689C1.54686 8.13385 1.48643 8.08998 1.44308 8.03128C1.39973 7.97258 1.37558 7.90192 1.37393 7.82896C1.37228 7.75601 1.39322 7.68433 1.43388 7.62373C1.47453 7.56313 1.53292 7.51658 1.60105 7.49044V7.49044Z" stroke="#FEB03C" stroke-width="1.04466" stroke-linecap="round" stroke-linejoin="round"/>
<path id="Vector_2" d="M19.607 0.942383L9.29596 11.2534" stroke="#FEB03C" stroke-width="1.04466" stroke-linecap="round" stroke-linejoin="round"/>
</g>
</svg>
