<svg width="21" height="18" viewBox="0 0 21 18" fill="none" xmlns="http://www.w3.org/2000/svg">
<g id="3">
<path id="Vector" d="M20.071 6.53664H14.3321C14.2335 6.53664 14.1528 6.61734 14.1528 6.71598V7.79202C14.1528 7.89065 14.2335 7.97136 14.3321 7.97136H20.071C20.1696 7.97136 20.2503 7.89065 20.2503 7.79202V6.71598C20.2503 6.61734 20.1696 6.53664 20.071 6.53664ZM17.067 9.58542H14.3321C14.2335 9.58542 14.1528 9.66612 14.1528 9.76476V10.8408C14.1528 10.9394 14.2335 11.0201 14.3321 11.0201H17.067C17.1657 11.0201 17.2464 10.9394 17.2464 10.8408V9.76476C17.2464 9.66612 17.1657 9.58542 17.067 9.58542ZM9.58632 4.53027H8.61564C8.47665 4.53027 8.36456 4.64236 8.36456 4.78135V10.3409C8.36456 10.4216 8.40267 10.4956 8.46768 10.5426L11.8056 12.9772C11.9177 13.0579 12.0747 13.0355 12.1554 12.9234L12.7315 12.1365V12.1343C12.8122 12.0222 12.7875 11.8653 12.6754 11.7846L9.83515 9.73113V4.78135C9.83739 4.64236 9.72306 4.53027 9.58632 4.53027V4.53027Z" fill="#FEB03C"/>
<path id="Vector_2" d="M16.928 12.4077H15.6323C15.5068 12.4077 15.388 12.4727 15.3207 12.5803C15.036 13.0309 14.7042 13.4479 14.3231 13.829C13.6663 14.4858 12.9019 15.0014 12.0522 15.3601C11.1712 15.7322 10.2364 15.9205 9.27247 15.9205C8.30627 15.9205 7.37146 15.7322 6.4927 15.3601C5.64308 15.0014 4.87864 14.4858 4.22181 13.829C3.56497 13.1722 3.04937 12.4077 2.69069 11.5581C2.31856 10.6793 2.13026 9.74452 2.13026 8.77833C2.13026 7.81214 2.31856 6.87957 2.69069 5.99856C3.04937 5.14894 3.56497 4.3845 4.22181 3.72767C4.87864 3.07084 5.64308 2.55523 6.4927 2.19655C7.37146 1.82442 8.30851 1.63612 9.27247 1.63612C10.2387 1.63612 11.1735 1.82442 12.0522 2.19655C12.9019 2.55523 13.6663 3.07084 14.3231 3.72767C14.7042 4.10877 15.036 4.52573 15.3207 4.97632C15.388 5.08393 15.5068 5.14894 15.6323 5.14894H16.928C17.0827 5.14894 17.1814 4.98753 17.1119 4.85079C15.6502 1.94324 12.6867 0.053442 9.37783 0.0153322C4.53341 -0.045195 0.509471 3.92046 0.500504 8.7604C0.491537 13.6093 4.42132 17.5436 9.27023 17.5436C12.6216 17.5436 15.6346 15.647 17.1119 12.7059C17.1814 12.5691 17.0805 12.4077 16.928 12.4077V12.4077Z" fill="#FEB03C"/>
</g>
</svg>
