<svg width="19" height="20" viewBox="0 0 19 20" fill="none" xmlns="http://www.w3.org/2000/svg">
<path id="4" d="M17.7056 3.76828C17.6941 3.74754 17.678 3.7268 17.6595 3.71067C17.5443 3.59546 17.3577 3.59546 17.2425 3.71067L13.2722 7.68098L11.7075 6.11636L15.6802 2.14375C15.6986 2.12532 15.7124 2.10688 15.7262 2.08614C15.8092 1.94558 15.7631 1.76584 15.6225 1.68289C13.3597 0.346397 10.3964 0.652868 8.44926 2.5977C6.90538 4.14158 6.39383 6.33066 6.9169 8.29853L0.16531 15.0501C0.0961807 15.1193 0.100789 15.2322 0.172222 15.3036L4.08262 19.214C4.15405 19.2854 4.26926 19.29 4.33609 19.2209L11.0854 12.4716C13.0556 12.997 15.2446 12.4877 16.7908 10.9416C18.7357 8.99443 19.0421 6.0311 17.7056 3.76828V3.76828ZM15.6179 9.76637C14.2791 11.1052 12.2698 11.3632 10.6729 10.5406L10.4701 10.7434L10.4678 10.7411L4.15405 17.0572L2.32905 15.2322L7.63124 9.92997C7.63124 9.92997 7.63124 9.93228 7.63354 9.93228L8.85021 8.71561C8.02758 7.11873 8.28566 5.10938 9.62446 3.77058C10.0562 3.33841 10.5762 3.00453 11.1489 2.79177C11.7216 2.57901 12.3334 2.49237 12.9426 2.53778L9.88023 5.59789C9.74191 5.73637 9.66422 5.92409 9.66422 6.11982C9.66422 6.31554 9.74191 6.50326 9.88023 6.64174L12.7491 9.51059C12.8876 9.64891 13.0753 9.72661 13.271 9.72661C13.4667 9.72661 13.6545 9.64891 13.7929 9.51059L16.853 6.45048C16.9383 7.64411 16.5212 8.86539 15.6179 9.76637V9.76637Z" fill="#FEB03C"/>
</svg>
