<svg width="20" height="21" viewBox="0 0 20 21" fill="none" xmlns="http://www.w3.org/2000/svg">
<g id="5">
<path id="Vector" d="M18.6669 1.4291H13.3333V0.0957031H20.0003V6.76267H18.6669V1.4291Z" fill="#FEB03C"/>
<path id="Vector_2" d="M13.3333 6.76288V2.7627H17.3335V6.76288H13.3333ZM16.0001 4.09609H14.6667V5.42948H16.0001V4.09609Z" fill="#FEB03C"/>
<path id="Vector_3" d="M6.99969 1.4291H1.33277V6.76267H-0.000622064V0.0957031H6.99969V1.4291Z" fill="#FEB03C"/>
<path id="Vector_4" d="M2.66614 6.76288V2.7627H6.66632V6.76288H2.66614ZM5.33293 4.09609H3.99953V5.42948H5.33293V4.09609Z" fill="#FEB03C"/>
<path id="Vector_5" d="M13.3333 18.7642H18.6669V13.4307H20.0003V20.0976H13.3333V18.7642Z" fill="#FEB03C"/>
<path id="Vector_6" d="M13.3333 13.4307H17.3335V17.4308H13.3333V13.4307ZM14.6667 16.0975H16.0001V14.7641H14.6667V16.0975Z" fill="#FEB03C"/>
<path id="Vector_7" d="M1.33277 18.7642H6.99969V20.0976H-0.000622064V13.4307H1.33277V18.7642Z" fill="#FEB03C"/>
<path id="Vector_8" d="M9.33313 12.0971H3.99956V14.7639H2.66616V10.7637H9.33313V12.0971Z" fill="#FEB03C"/>
<path id="Vector_9" d="M2.66616 17.4306V16.0972H10.6665V10.7637H17.3335V12.0971H11.9999V17.4306H2.66616Z" fill="#FEB03C"/>
<path id="Vector_10" d="M11.9999 2.7627H10.6665V6.76288H11.9999V2.7627Z" fill="#FEB03C"/>
<path id="Vector_11" d="M17.3335 9.42966H7.99974V2.7627H9.33313V8.09627H17.3335V9.42966Z" fill="#FEB03C"/>
<path id="Vector_12" d="M6.66632 8.0957H2.66614V9.4291H6.66632V8.0957Z" fill="#FEB03C"/>
<path id="Vector_13" d="M6.66632 13.4307H5.33293V14.7641H6.66632V13.4307Z" fill="#FEB03C"/>
<path id="Vector_14" d="M9.33313 13.4307H7.99974V14.7641H9.33313V13.4307Z" fill="#FEB03C"/>
</g>
</svg>
