<svg width="22" height="26" viewBox="0 0 22 26" fill="none" xmlns="http://www.w3.org/2000/svg">
<g id="6status">
<path id="Vector" d="M4.59851 20.3271H13.7572V22.1589H4.59851V20.3271Z" fill="#FEB03C"/>
<path id="Vector_2" d="M6.4303 23.9902H11.9255V25.822H6.4303V23.9902Z" fill="#FEB03C"/>
<path id="Vector_3" d="M4.42905 14.9598C3.5713 14.3056 2.88754 13.4506 2.43796 12.47C1.98838 11.4894 1.78677 10.4133 1.85089 9.33641C1.85331 7.39393 2.62603 5.5317 3.99957 4.15816C5.37312 2.78461 7.23535 2.01189 9.17783 2.00947V0.177734C6.74961 0.180401 4.42162 1.14619 2.70461 2.86319C0.987604 4.5802 0.0218181 6.9082 0.0191514 9.33641C-0.0429433 10.667 0.211984 11.9932 0.762931 13.206C1.31388 14.4187 2.14508 15.4831 3.18805 16.3117C4.11491 17.168 4.59849 17.6534 4.59849 18.4951H6.43022C6.43022 16.8099 5.41361 15.8702 4.42905 14.9598Z" fill="#FEB03C"/>
<path id="Vector_4" d="M13.9202 14.9631C12.9393 15.8716 11.9254 16.8104 11.9254 18.4956H13.7572C13.7572 17.653 14.2389 17.1676 15.163 16.3103C16.2058 15.4818 17.0372 14.4177 17.5889 13.2055C18.1406 11.9933 18.3968 10.6674 18.3365 9.33691H16.5048C16.5671 10.4146 16.3641 11.4911 15.9135 12.472C15.4629 13.453 14.7784 14.3083 13.9202 14.9631V14.9631Z" fill="#FEB03C"/>
<path id="Vector_5" d="M11.4676 6.5894C12.2263 6.5894 12.8414 5.97433 12.8414 5.2156C12.8414 4.45687 12.2263 3.8418 11.4676 3.8418C10.7088 3.8418 10.0938 4.45687 10.0938 5.2156C10.0938 5.97433 10.7088 6.5894 11.4676 6.5894Z" fill="#FEB03C"/>
<path id="Vector_6" d="M20.6262 6.5894C21.385 6.5894 22 5.97433 22 5.2156C22 4.45687 21.385 3.8418 20.6262 3.8418C19.8675 3.8418 19.2524 4.45687 19.2524 5.2156C19.2524 5.97433 19.8675 6.5894 20.6262 6.5894Z" fill="#FEB03C"/>
<path id="Vector_7" d="M16.0469 6.5894C16.8056 6.5894 17.4207 5.97433 17.4207 5.2156C17.4207 4.45687 16.8056 3.8418 16.0469 3.8418C15.2882 3.8418 14.6731 4.45687 14.6731 5.2156C14.6731 5.97433 15.2882 6.5894 16.0469 6.5894Z" fill="#FEB03C"/>
</g>
</svg>
