<svg width="30" height="30" viewBox="0 0 30 30" fill="none" xmlns="http://www.w3.org/2000/svg">
<g id="7">
<circle id="Ellipse 10" cx="14.6988" cy="15.3962" r="14.5475" fill="#FEB03C"/>
<path id="Vector" d="M20.4108 19.3387L17.6648 16.6139C18.1972 15.7817 18.5051 14.7952 18.5051 13.7391C18.5051 10.7718 16.0725 8.35742 13.0821 8.35742C10.0917 8.35742 7.65967 10.7718 7.65967 13.7391C7.65967 16.7064 10.0917 19.1208 13.0827 19.1208C14.0945 19.1208 15.0424 18.8443 15.8535 18.3636L18.6237 21.1125C19.8066 22.2846 21.5942 20.5125 20.4108 19.3387ZM9.3408 13.7391C9.3408 11.6921 11.0197 10.0261 13.0827 10.0261C15.1456 10.0261 16.8245 11.6915 16.8245 13.7391C16.8245 15.7867 15.1456 17.4521 13.0827 17.4521C11.0197 17.4521 9.3408 15.7861 9.3408 13.7391V13.7391ZM10.4498 12.7734C11.5444 10.2555 15.23 10.5473 15.9241 13.1834C14.526 11.5552 12.0658 11.38 10.4498 12.7734Z" fill="white"/>
</g>
</svg>
