<svg width="30" height="30" viewBox="0 0 30 30" fill="none" xmlns="http://www.w3.org/2000/svg">
<g id="8">
<circle id="Ellipse 10" cx="15.2862" cy="15.3962" r="14.5475" fill="#FEB03C"/>
<path id="Vector" d="M12.9398 15.2404C12.9398 16.6207 14.0623 17.7432 15.4426 17.7432C16.5445 17.7432 17.4711 17.023 17.8046 16.0325L19.1962 15.2248L19.1968 15.2404C19.1968 17.314 17.5162 18.9946 15.4426 18.9946C13.369 18.9946 11.6884 17.314 11.6884 15.2404C11.6884 13.1668 13.369 11.4862 15.4426 11.4862C16.1209 11.4862 16.7553 11.6689 17.3041 11.983L15.9213 12.7858C15.7661 12.7557 15.6065 12.7376 15.4426 12.7376C14.0623 12.7376 12.9398 13.8601 12.9398 15.2404ZM15.4426 13.989C14.7512 13.989 14.1912 14.5496 14.1912 15.2404C14.1912 15.9312 14.7512 16.4918 15.4426 16.4918C16.134 16.4918 16.694 15.9312 16.694 15.2404L16.6928 15.231L18.7951 14.0109C19.4058 13.6574 20.487 13.8007 21.1171 14.1104L24.2024 12.319L22.2265 11.3373L22.3322 9.06474L19.2381 10.8605C19.1943 11.5619 18.7788 12.5724 18.1713 12.9259L16.0545 14.1548C15.8731 14.0528 15.666 13.989 15.4426 13.989V13.989ZM20.4451 15.1847L20.4482 15.2404C20.4482 18.0004 18.2026 20.246 15.4426 20.246C12.6826 20.246 10.437 18.0004 10.437 15.2404C10.437 12.4804 12.6826 10.2348 15.4426 10.2348C16.3655 10.2348 17.2277 10.4901 17.9711 10.9274C18.18 10.5608 18.2389 9.96137 18.0624 9.56342C17.2647 9.19489 16.3793 8.9834 15.4426 8.9834C11.9869 8.9834 9.18561 11.7847 9.18561 15.2404C9.18561 18.6961 11.9869 21.4974 15.4426 21.4974C18.7169 21.4974 21.3999 18.9815 21.6727 15.7773C21.4844 15.475 21.0057 15.1134 20.4451 15.1847V15.1847Z" fill="white"/>
</g>
</svg>
