<svg width="30" height="30" viewBox="0 0 30 30" fill="none" xmlns="http://www.w3.org/2000/svg">
<g id="9">
<circle id="Ellipse 10" cx="15.3477" cy="15.3962" r="14.5475" fill="#FEB03C"/>
<path id="Vector" d="M14.3125 18.8056H12.1594V17.729H14.3125V18.8056ZM15.8983 16.633L17.5708 18.3044L15.3573 18.8056L15.8983 16.633V16.633ZM22.3868 13.49L18.1354 17.7941L16.4118 16.0705L20.6632 11.7669L22.3868 13.49V13.49ZM19.1571 18.2915V20.4204H10.5445V10.7313H12.6977L13.8292 11.8078H15.9274L17.004 10.7313H19.1571V11.7599L20.2337 10.6704V9.6547H18.6188C17.9573 9.6547 17.4454 9.0712 17.004 8.57812H12.6977C12.2563 9.0712 11.7444 9.6547 11.0828 9.6547H9.46796V21.497H20.2337V17.2015L19.1571 18.2915V18.2915ZM14.8508 9.6547C15.148 9.6547 15.3891 9.89585 15.3891 10.193C15.3891 10.4901 15.148 10.7313 14.8508 10.7313C14.5537 10.7313 14.3125 10.4901 14.3125 10.193C14.3125 9.89585 14.5537 9.6547 14.8508 9.6547Z" fill="white"/>
</g>
</svg>
