<svg width="161" height="408" viewBox="0 0 161 408" fill="none" xmlns="http://www.w3.org/2000/svg">
<g id="bio icon">
<rect id="Rectangle 4" x="80" y="141" width="2" height="265" fill="#D1D1D1"/>
<circle id="Ellipse 3" cx="81" cy="215" r="5" fill="#464866"/>
<circle id="Ellipse 4" cx="81" cy="309" r="5" fill="#464866"/>
<circle id="Ellipse 5" cx="81" cy="403" r="5" fill="#464866"/>
<path id="icon4" d="M65.8591 35.9358C65.9472 34.9557 66 33.9668 66 32.9691C65.9997 29.8928 65.57 26.8316 64.7233 23.8748L60.8933 24.0602L59.1323 19.2217L61.6065 16.511C59.5782 12.9839 56.9222 9.85957 53.7703 7.2931L50.7503 9.64174L46.5416 6.6927L47.0259 3.04615C43.3533 1.31299 39.3913 0.280034 35.342 0L34.2063 3.66421H29.0731L27.3826 0.397322C21.4675 1.4276 15.9468 4.06286 11.4197 8.01711L13.1806 11.4076L9.55311 15.0453L6.03122 13.9417C3.68575 17.2645 1.97513 20.9947 0.986136 24.9431L4.40235 26.709L3.52188 31.7771L1.07092e-06 32.8808C1.07092e-06 32.8808 1.07092e-06 32.9338 1.07092e-06 32.9602C-0.00102981 37.0057 0.742203 41.0167 2.19237 44.7917L5.99601 44.2708L8.16196 48.9327L5.93437 51.8464C8.25656 55.186 11.1691 58.0708 14.5278 60.358L17.3365 57.7092L21.7828 60.2873L21.6243 63.978C25.2617 65.3191 29.107 66.0037 32.9824 66H33.5371L34.3471 62.2475L39.4626 61.7972L41.4349 64.9051C45.358 63.8588 49.0538 62.0925 52.3351 59.6958L50.8559 56.164L54.7916 52.853L58.1726 54.2568C60.7946 51.1477 62.8214 47.5796 64.151 43.7322L60.9109 41.6837L62.2404 36.7128L65.8591 35.9358ZM33.0176 57.7268C28.1417 57.7268 23.3753 56.2769 19.3211 53.5603C15.2669 50.8438 12.107 46.9827 10.2411 42.4653C8.37515 37.9478 7.88692 32.977 8.83816 28.1813C9.78941 23.3856 12.1374 18.9805 15.5852 15.523C19.033 12.0655 23.4258 9.71095 28.208 8.75703C32.9903 7.80311 37.9472 8.2927 42.452 10.1639C46.9567 12.0351 50.807 15.2038 53.5159 19.2694C56.2249 23.3349 57.6708 28.1148 57.6708 33.0044C57.6545 39.5562 55.0519 45.8349 50.432 50.4678C45.8122 55.1006 39.551 57.7105 33.0176 57.7268Z" fill="#464866"/>
<path id="icon2" opacity="0.6" d="M85.8 104.7C85.9 103.59 85.96 102.47 85.96 101.34C85.9597 97.8558 85.4716 94.3888 84.51 91.04L80.16 91.25L78.16 85.77L80.97 82.7C78.6664 78.7052 75.6499 75.1667 72.07 72.26L68.64 74.92L63.86 71.58L64.41 67.45C60.2389 65.4871 55.739 64.3172 51.14 64L49.85 68.15H44.02L42.1 64.45C35.3819 65.6169 29.1117 68.6015 23.97 73.08L25.97 76.92L21.85 81.04L17.85 79.79C15.1861 83.5534 13.2433 87.7781 12.12 92.25L16 94.25L15 99.99L11 101.24C11 101.24 11 101.3 11 101.33C10.9988 105.912 11.8429 110.454 13.49 114.73L17.81 114.14L20.27 119.42L17.74 122.72C20.3774 126.502 23.6854 129.77 27.5 132.36L30.69 129.36L35.74 132.28L35.56 136.46C39.6911 137.979 44.0585 138.754 48.46 138.75H49.09L50.01 134.5L55.82 133.99L58.06 137.51C62.5157 136.325 66.7132 134.324 70.44 131.61L68.76 127.61L73.23 123.86L77.07 125.45C80.0479 121.929 82.3499 117.888 83.86 113.53L80.18 111.21L81.69 105.58L85.8 104.7ZM48.5 129.38C42.9621 129.38 37.5486 127.738 32.944 124.661C28.3395 121.584 24.7506 117.211 22.6314 112.095C20.5121 106.979 19.9576 101.349 21.038 95.9175C22.1184 90.486 24.7851 85.4969 28.701 81.581C32.6169 77.6651 37.606 74.9984 43.0375 73.918C48.4689 72.8376 54.0988 73.3921 59.2151 75.5114C64.3314 77.6306 68.7044 81.2194 71.7811 85.824C74.8578 90.4286 76.5 95.8421 76.5 101.38C76.4815 108.8 73.5256 115.912 68.2786 121.159C63.0315 126.406 55.9204 129.362 48.5 129.38Z" fill="#464866"/>
<path id="icon3" opacity="0.4" d="M112.891 54.7686C112.959 54.0112 113 53.2471 113 52.4761C113 50.0989 112.668 47.7335 112.013 45.4487L109.054 45.592L107.693 41.8531L109.605 39.7585C108.038 37.033 105.985 34.6188 103.55 32.6356L101.216 34.4504L97.964 32.1716L98.3382 29.3538C95.5003 28.0146 92.4387 27.2164 89.3098 27L88.4321 29.8314H84.4656L83.1593 27.307C78.5886 28.1031 74.3226 30.1395 70.8243 33.195L72.185 35.815L69.3819 38.6259L66.6605 37.7731C64.8481 40.3408 63.5262 43.2232 62.762 46.2742L65.4018 47.6388L64.7215 51.555L62 52.4079C62 52.4079 62 52.4488 62 52.4693C61.9992 55.5953 62.5735 58.6947 63.6941 61.6118L66.6333 61.2092L68.307 64.8116L66.5856 67.0631C68.3801 69.6437 70.6307 71.8729 73.226 73.6403L75.3963 71.5934L78.8322 73.5857L78.7097 76.4376C81.5204 77.4739 84.4918 78.0028 87.4864 78H87.915L88.5409 75.1003L92.4939 74.7524L94.0179 77.154C97.0494 76.3454 99.9052 74.9806 102.441 73.1286L101.298 70.3995L104.339 67.8409L106.952 68.9257C108.978 66.5232 110.544 63.7661 111.571 60.793L109.068 59.2102L110.095 55.3689L112.891 54.7686ZM87.5136 71.6071C83.7458 71.6071 80.0627 70.4867 76.9299 68.3875C73.7971 66.2884 71.3554 63.3048 69.9136 59.8141C68.4717 56.3233 68.0944 52.4822 68.8295 48.7765C69.5645 45.0707 71.3789 41.6668 74.0431 38.9951C76.7073 36.3234 80.1017 34.5039 83.7971 33.7668C87.4925 33.0297 91.3228 33.408 94.8038 34.8539C98.2847 36.2998 101.26 38.7484 103.353 41.89C105.446 45.0315 106.564 48.725 106.564 52.5034C106.551 57.5661 104.54 62.4179 100.97 65.9978C97.4003 69.5777 92.5622 71.5945 87.5136 71.6071V71.6071Z" fill="#464866"/>
<path id="icon1" d="M160.8 106.7C160.9 105.59 160.96 104.47 160.96 103.34C160.96 99.8558 160.472 96.3888 159.51 93.04L155.16 93.25L153.16 87.77L155.97 84.7C153.666 80.7052 150.65 77.1667 147.07 74.26L143.64 76.92L138.86 73.58L139.41 69.45C135.239 67.4871 130.739 66.3172 126.14 66L124.85 70.15H119.02L117.1 66.45C110.382 67.6169 104.112 70.6015 98.97 75.08L100.97 78.92L96.85 83.04L92.85 81.79C90.1861 85.5534 88.2433 89.7781 87.12 94.25L91 96.25L90 101.99L86 103.24C86 103.24 86 103.3 86 103.33C85.9988 107.912 86.8429 112.454 88.49 116.73L92.81 116.14L95.27 121.42L92.74 124.72C95.3774 128.502 98.6854 131.77 102.5 134.36L105.69 131.36L110.74 134.28L110.56 138.46C114.691 139.979 119.059 140.754 123.46 140.75H124.09L125.01 136.5L130.82 135.99L133.06 139.51C137.516 138.325 141.713 136.324 145.44 133.61L143.76 129.61L148.23 125.86L152.07 127.45C155.048 123.929 157.35 119.888 158.86 115.53L155.18 113.21L156.69 107.58L160.8 106.7ZM123.5 131.38C117.962 131.38 112.549 129.738 107.944 126.661C103.339 123.584 99.7506 119.211 97.6314 114.095C95.5121 108.979 94.9576 103.349 96.038 97.9175C97.1184 92.486 99.7851 87.4969 103.701 83.581C107.617 79.6651 112.606 76.9984 118.037 75.918C123.469 74.8376 129.099 75.3921 134.215 77.5114C139.331 79.6306 143.704 83.2194 146.781 87.824C149.858 92.4286 151.5 97.8421 151.5 103.38C151.482 110.8 148.526 117.912 143.279 123.159C138.032 128.406 130.92 131.362 123.5 131.38V131.38Z" fill="#464866"/>
</g>
</svg>
