<svg width="45" height="45" viewBox="0 0 45 45" fill="none" xmlns="http://www.w3.org/2000/svg">
<g clip-path="url(#clip0)">
<path d="M45 6.37945V38.611C45 39.1109 44.5944 39.5165 44.0946 39.5165H0.905449C0.405615 39.5165 0 39.1109 0 38.611V6.37945C0 5.87961 0.405615 5.474 0.905449 5.474H44.0946C44.5944 5.47409 45 5.8797 45 6.37945Z" fill="#7A48FF"/>
<path d="M15 39.5259H0.905449C0.405352 39.5259 0 39.1206 0 38.6206V11.181H15V39.5259Z" fill="#FF5677"/>
<path d="M44.0946 39.5259H30V11.181H45V38.6206C45 39.1206 44.5947 39.5259 44.0946 39.5259Z" fill="#FFB800"/>
<path d="M45 6.37948V38.6111C45 39.1109 44.5944 39.5165 44.0945 39.5165H33.2493C43.2669 30.8452 43.0442 10.683 42.8079 5.47412H44.0945C44.5944 5.47412 45 5.87974 45 6.37948V6.37948Z" fill="#FF9700"/>
<path d="M29.9998 16.8499V33.8575H6.58172C6.08188 33.8575 5.67627 33.4519 5.67627 32.952V17.7553C5.67627 17.2555 6.08188 16.8499 6.58172 16.8499H29.9998Z" fill="#E8E6ED"/>
<path d="M29.9996 16.8499V33.8575H23.696C26.5518 28.7291 27.862 22.3639 28.4341 16.8499H29.9996Z" fill="#D1D0D8"/>
<path d="M45 6.37945V11.181H0V6.37945C0 5.87961 0.405615 5.474 0.905449 5.474H44.0946C44.5944 5.47409 45 5.8797 45 6.37945Z" fill="#AAAAB2"/>
<path d="M44.9999 6.37948V11.181H42.8422C42.9165 8.6947 42.8631 6.68191 42.8079 5.47412H44.0945C44.5942 5.47412 44.9999 5.87974 44.9999 6.37948Z" fill="#898993"/>
<path d="M3.62585 9.00677H3.61557C3.24045 9.00677 2.93652 8.70275 2.93652 8.32772C2.93652 7.95269 3.24054 7.64868 3.61557 7.64868H3.62585C4.00097 7.64868 4.30489 7.95269 4.30489 8.32772C4.30489 8.70275 4.00088 9.00677 3.62585 9.00677Z" fill="#5F5F68"/>
<path d="M5.67581 9.00677H5.66562C5.2905 9.00677 4.98657 8.70275 4.98657 8.32772C4.98657 7.95269 5.29059 7.64868 5.66562 7.64868H5.67581C6.05093 7.64868 6.35485 7.95269 6.35485 8.32772C6.35485 8.70275 6.05093 9.00677 5.67581 9.00677Z" fill="#5F5F68"/>
<path d="M7.7261 9.00677H7.71591C7.34079 9.00677 7.03687 8.70275 7.03687 8.32772C7.03687 7.95269 7.34088 7.64868 7.71591 7.64868H7.7261C8.10122 7.64868 8.40515 7.95269 8.40515 8.32772C8.40515 8.70275 8.10122 9.00677 7.7261 9.00677Z" fill="#5F5F68"/>
<path d="M41.3843 9.00677H40.1207C39.7456 9.00677 39.4417 8.70275 39.4417 8.32772C39.4417 7.95269 39.7457 7.64868 40.1207 7.64868H41.3843C41.7594 7.64868 42.0633 7.95269 42.0633 8.32772C42.0633 8.70275 41.7594 9.00677 41.3843 9.00677Z" fill="#5F5F68"/>
<path d="M16.9769 21.264H10.1861C9.81101 21.264 9.50708 20.96 9.50708 20.5849C9.50708 20.2099 9.81109 19.9059 10.1861 19.9059H16.9769C17.352 19.9059 17.6559 20.2099 17.6559 20.5849C17.6559 20.96 17.352 21.264 16.9769 21.264Z" fill="#FF5677"/>
<path d="M24.7637 24.454H10.1861C9.81101 24.454 9.50708 24.15 9.50708 23.775C9.50708 23.4 9.81109 23.0959 10.1861 23.0959H24.7636C25.1387 23.0959 25.4426 23.4 25.4426 23.775C25.4427 24.15 25.1387 24.454 24.7637 24.454Z" fill="#AAAAB2"/>
<path d="M23.8582 26.3434H10.1861C9.81101 26.3434 9.50708 26.0394 9.50708 25.6644C9.50708 25.2894 9.81109 24.9854 10.1861 24.9854H23.8581C24.2332 24.9854 24.5372 25.2894 24.5372 25.6644C24.5373 26.0394 24.2332 26.3434 23.8582 26.3434Z" fill="#AAAAB2"/>
<path d="M15.5707 30.1858H11.2603C10.6003 30.1858 10.0654 29.6508 10.0654 28.9909C10.0654 28.3309 10.6004 27.796 11.2603 27.796H15.5707C16.2307 27.796 16.7656 28.331 16.7656 28.9909C16.7656 29.6508 16.2306 30.1858 15.5707 30.1858Z" fill="#FF2953"/>
<path d="M41.1801 27.2799C41.1801 27.6547 40.8768 27.9589 40.5011 27.9589H34.911C34.5361 27.9589 34.2319 27.6547 34.2319 27.2799C34.2319 26.905 34.5361 26.6008 34.911 26.6008H40.5011C40.5527 26.6008 40.6025 26.6063 40.6505 26.6181C40.9547 26.6859 41.1801 26.9566 41.1801 27.2799Z" fill="#E8E6ED"/>
<path d="M41.1802 29.2546C41.1802 29.6303 40.8769 29.9336 40.5011 29.9336H37.658C37.2832 29.9336 36.979 29.6303 36.979 29.2546C36.979 28.8798 37.2833 28.5756 37.658 28.5756H40.5011C40.8769 28.5756 41.1802 28.8798 41.1802 29.2546Z" fill="#E8E6ED"/>
<path d="M35.8787 29.9341H34.9112C34.5361 29.9341 34.2322 29.6301 34.2322 29.2551C34.2322 28.8801 34.5362 28.576 34.9112 28.576H35.8787C36.2538 28.576 36.5578 28.8801 36.5578 29.2551C36.5579 29.6301 36.2538 29.9341 35.8787 29.9341Z" fill="#E8E6ED"/>
<path d="M41.1801 31.2303C41.1801 31.6052 40.8768 31.9094 40.5011 31.9094H34.911C34.5361 31.9094 34.2319 31.6052 34.2319 31.2303C34.2319 30.8555 34.5361 30.5513 34.911 30.5513H40.5011C40.8768 30.5513 41.1801 30.8555 41.1801 31.2303Z" fill="#E8E6ED"/>
<path d="M37.7063 24.0937C39.3376 24.0937 40.6601 22.7712 40.6601 21.1399C40.6601 19.5085 39.3376 18.186 37.7063 18.186C36.0749 18.186 34.7524 19.5085 34.7524 21.1399C34.7524 22.7712 36.0749 24.0937 37.7063 24.0937Z" fill="#E8E6ED"/>
<path d="M37.3998 22.8834C37.2175 22.8834 37.0356 22.8104 36.9019 22.6663C36.6467 22.3914 36.6628 21.9617 36.9376 21.7066L37.5482 21.1399L36.9376 20.5733C36.6627 20.3181 36.6466 19.8884 36.9019 19.6135C37.1569 19.3387 37.5867 19.3225 37.8615 19.5777L39.0084 20.6422C39.1468 20.7707 39.2256 20.951 39.2256 21.1399C39.2256 21.3288 39.1469 21.5091 39.0084 21.6376L37.8615 22.7021C37.7308 22.8234 37.565 22.8834 37.3998 22.8834V22.8834Z" fill="#FF9700"/>
<path d="M41.1801 31.2302C41.1801 31.605 40.8768 31.9092 40.501 31.9092H38.7173C38.9229 31.4628 39.1184 31.0101 39.304 30.551H40.501C40.8768 30.5511 41.1801 30.8553 41.1801 31.2302V31.2302Z" fill="#D1D0D8"/>
<path d="M41.1799 29.2545C41.1799 29.6302 40.8766 29.9335 40.5009 29.9335H39.5483C39.7203 29.4853 39.8843 29.0316 40.039 28.5753H40.5008C40.8766 28.5754 41.1799 28.8797 41.1799 29.2545Z" fill="#D1D0D8"/>
<path d="M40.501 27.9589H40.2429C40.3869 27.5143 40.5227 27.067 40.6504 26.6179C40.9547 26.6859 41.1801 26.9566 41.1801 27.2798C41.1801 27.6546 40.8768 27.9589 40.501 27.9589V27.9589Z" fill="#D1D0D8"/>
</g>
<defs>
<clipPath id="clip0">
<rect width="45" height="45" fill="white"/>
</clipPath>
</defs>
</svg>
