<svg width="70" height="70" viewBox="0 0 70 70" fill="none" xmlns="http://www.w3.org/2000/svg">
<g id="twitter">
<rect id="rect2" width="70" height="70" fill="#E6E2E2"/>
<path id="twitter_2" d="M47 27.557C46.117 27.949 45.168 28.213 44.172 28.332C45.189 27.723 45.97 26.758 46.337 25.608C45.386 26.172 44.332 26.582 43.21 26.803C42.313 25.846 41.032 25.248 39.616 25.248C36.437 25.248 34.101 28.214 34.819 31.293C30.728 31.088 27.1 29.128 24.671 26.149C23.381 28.362 24.002 31.257 26.194 32.723C25.388 32.697 24.628 32.476 23.965 32.107C23.911 34.388 25.546 36.522 27.914 36.997C27.221 37.185 26.462 37.229 25.69 37.081C26.316 39.037 28.134 40.46 30.29 40.5C28.22 42.123 25.612 42.848 23 42.54C25.179 43.937 27.768 44.752 30.548 44.752C39.69 44.752 44.855 37.031 44.543 30.106C45.505 29.411 46.34 28.544 47 27.557V27.557Z" fill="#464866"/>
</g>
</svg>
